<svg width="84" height="84" viewBox="0 0 84 84" fill="none" xmlns="http://www.w3.org/2000/svg">
<path d="M-317 -5051C-317 -5052.1 -316.105 -5053 -315 -5053H1647C1648.1 -5053 1649 -5052.1 1649 -5051V496C1649 497.104 1648.1 498 1647 498H-315C-316.105 498 -317 497.104 -317 496V-5051Z" fill="#2D2D2D"/>
<path d="M-315 -5053V-5052H1647V-5053V-5054H-315V-5053ZM1649 -5051H1648V496H1649H1650V-5051H1649ZM1647 498V497H-315V498V499H1647V498ZM-317 496H-316V-5051H-317H-318V496H-317ZM-315 498V497C-315.552 497 -316 496.552 -316 496H-317H-318C-318 497.657 -316.657 499 -315 499V498ZM1649 496H1648C1648 496.552 1647.55 497 1647 497V498V499C1648.66 499 1650 497.657 1650 496H1649ZM1647 -5053V-5052C1647.55 -5052 1648 -5051.55 1648 -5051H1649H1650C1650 -5052.66 1648.66 -5054 1647 -5054V-5053ZM-315 -5053V-5054C-316.657 -5054 -318 -5052.66 -318 -5051H-317H-316C-316 -5051.55 -315.552 -5052 -315 -5052V-5053Z" fill="black" fill-opacity="0.1"/>
<g clip-path="url(#clip0_0_1)">
<rect width="1440" height="5313" transform="translate(-54 -4934)" fill="white"/>
<path d="M65.0461 -240.418C70.4257 -254.808 74.6254 -288.332 48.388 -307.307C15.5913 -331.026 -30.2853 -302.681 -43.4399 -280.975C-56.5944 -259.269 -66.075 -239.56 -63.1522 -213.866C-58.6998 -174.726 -31.6825 -208.167 -16.0582 -202.326C-0.433825 -196.485 -13.4246 -172.339 0.819981 -168.382C13.9005 -164.748 18.9831 -189.226 31.6992 -184.473C42.6068 -180.395 54.5106 -133.145 61.2911 -130.61C68.0715 -128.075 81.5582 -131.796 122.312 -167.111C177.838 -215.226 197.225 -229.086 211.449 -217.702C231.989 -201.264 221.623 -123.581 232.826 -81.6482C242.821 -44.239 273.583 -36.081 294.182 -43.5456C314.78 -51.0103 353.766 -84.2906 360.729 -129.879C367.692 -175.468 333.053 -189.766 319.309 -187.153C305.564 -184.54 276.558 -146.445 324.469 -124.562C373.259 -102.279 428.239 -88.4651 473.93 -133.393C481.287 -152.879 515.099 -192.898 591.499 -197.089C686.999 -202.326 778.5 -137.133 775.5 -167.111C772.5 -197.089 658.5 -173.816 711 -217.702C763.5 -261.588 820.713 -279.759 842.5 -292.588C887.499 -319.089 931.028 -339.641 962.999 -366.58C1053.1 -442.503 1192.2 -384.396 1205.5 -445.58C1240.5 -606.58 1460.5 -598.58 1422 -766.58M276.123 -137.244C241.337 -142.161 156.73 -162.467 96.5904 -204.361" stroke="black" stroke-width="2" stroke-linecap="round" stroke-linejoin="round"/>
<rect x="-58" y="-82" width="1448" height="468" fill="#990011"/>
<circle cx="42" cy="42" r="41.5" fill="#990011" stroke="white"/>
<path d="M54.2679 28.5118C28.3268 -6.6929 9.9455 42.435 15.9738 56.9225C22.002 71.41 26.5143 62.2397 32.6502 56.9218C37.2704 52.9175 40.1856 58.7955 41.344 61.9439C41.6194 62.6925 42.63 62.9214 43.1697 62.3339C48.6571 56.3609 50.4715 55.4197 51.7973 56.9218C62.1446 70.76 66.7758 74.3463 70.9443 66.1864" stroke="white" stroke-width="5" stroke-linecap="round"/>
<ellipse cx="34.0967" cy="71.5355" rx="2.87926" ry="3.30706" transform="rotate(6.0963 34.0967 71.5355)" fill="white"/>
<ellipse cx="48.9202" cy="72.7704" rx="2.87926" ry="3.30706" transform="rotate(-0.338754 48.9202 72.7704)" fill="white"/>
</g>
<defs>
<clipPath id="clip0_0_1">
<rect width="1440" height="5313" fill="white" transform="translate(-54 -4934)"/>
</clipPath>
</defs>
</svg>
