<svg preserveAspectRatio="none" width="100%" height="100%" overflow="visible" style="display: block;" viewBox="0 0 41.5369 42.6022" fill="none" xmlns="http://www.w3.org/2000/svg">
<g id="Group">
<g id="Vector" filter="url(#filter0_f_0_73)">
<path d="M0.474158 21.9741C0.495369 25.1599 1.40316 28.4469 2.77725 31.1004V31.1187C3.77009 33.0457 5.12703 34.5679 6.67255 36.0761L16.0071 32.6701C14.2411 31.773 13.9716 31.2233 12.7056 30.2203C11.4119 28.9157 10.4477 27.4181 9.84724 25.6621H9.82305L9.84724 25.6438C9.4522 24.4842 9.41324 23.2533 9.39866 21.9741H0.474158Z" fill="url(#paint0_radial_0_73)"/>
</g>
<g id="Vector_2" filter="url(#filter1_f_0_73)">
<path d="M21.1947 1.69456C20.272 4.93588 20.6248 8.08655 21.1947 9.91975C22.2601 9.92054 23.2864 10.0475 24.2596 10.3006C26.4907 10.8806 28.0686 12.023 29.0357 12.9266L35.0199 7.06638C31.4748 3.81594 27.2085 1.69968 21.1947 1.69456Z" fill="url(#paint1_radial_0_73)"/>
</g>
<g id="Vector_3" filter="url(#filter2_f_0_73)">
<path d="M21.1746 1.66893C16.6491 1.66883 12.471 3.07885 9.04712 5.46184C7.77583 6.34665 6.60921 7.36875 5.57039 8.50534C5.29825 11.0584 7.60759 14.1965 12.1808 14.1705C14.3997 11.5894 17.6814 9.91946 21.3339 9.91946C21.3373 9.91946 21.3405 9.91974 21.3438 9.91975L21.1947 1.66951C21.1879 1.66951 21.1814 1.66893 21.1746 1.66893Z" fill="url(#paint2_radial_0_73)"/>
</g>
<g id="Vector_4" filter="url(#filter3_f_0_73)">
<path d="M36.1114 22.898L32.0721 25.6729C31.8948 26.7612 31.4965 27.8317 30.9137 28.8078C30.2459 29.9262 29.4204 30.7777 28.5742 31.4261C26.0447 33.3645 23.0973 33.7636 21.0455 33.7652C18.9248 37.3772 18.553 39.1864 21.1947 42.1016C24.4635 42.0992 27.3615 41.5091 29.9176 40.4041C31.7654 39.6054 33.4025 38.5636 34.8847 37.2246C36.8432 35.4554 38.3773 33.267 39.4242 30.7493C40.4711 28.2316 41.031 25.3846 41.031 22.2979L36.1114 22.898Z" fill="url(#paint3_radial_0_73)"/>
</g>
<g id="Vector_5" filter="url(#filter4_f_0_73)">
<path d="M20.8963 17.8374V26.1111H40.3306C40.5015 24.978 41.0668 23.5117 41.0668 22.2979C41.0668 20.8794 40.9244 19.1467 40.6828 17.8374H20.8963Z" fill="var(--fill-0, #3086FF)"/>
</g>
<g id="Vector_6" filter="url(#filter5_f_0_73)">
<path d="M5.66312 8.21325C4.46382 9.52544 3.43926 10.9942 2.6269 12.5825C1.2332 15.2991 0.470079 18.6016 0.470079 21.8383C0.470079 21.884 0.473854 21.9286 0.474159 21.9741C1.09139 23.1576 9.00004 22.9309 9.39866 21.9741C9.39816 21.9295 9.39314 21.8859 9.39314 21.8412C9.39314 20.5136 9.61742 19.5351 10.0262 18.3349C10.5306 16.8544 11.3202 15.4911 12.33 14.3165C12.5589 14.0243 13.1695 13.3961 13.3476 13.0192C13.4154 12.8757 13.2244 12.7951 13.2137 12.7446C13.2018 12.6881 12.9456 12.7335 12.8882 12.6914C12.706 12.5578 12.3452 12.488 12.1261 12.426C11.6578 12.2934 10.8817 12.001 10.4507 11.6979C9.0881 10.7397 6.96168 9.59524 5.66312 8.21325Z" fill="url(#paint4_radial_0_73)"/>
</g>
<g id="Vector_7" filter="url(#filter6_f_0_73)">
<path d="M10.4799 12.7503C13.6396 14.6642 14.5483 11.7842 16.649 10.8829L12.9947 3.30485C11.6505 3.86984 10.3804 4.57179 9.20199 5.39196C7.44212 6.61681 5.88803 8.11149 4.60424 9.81245L10.4799 12.7503Z" fill="url(#paint5_radial_0_73)"/>
</g>
<g id="Vector_8" filter="url(#filter7_f_0_73)">
<path d="M11.7659 32.0847C7.52449 33.6159 6.86047 33.6708 6.47004 36.2994C7.21613 37.0274 8.01774 37.7009 8.86958 38.3115C11.1553 39.95 15.5521 42.1322 21.1751 42.1322C21.1817 42.1322 21.1881 42.1316 21.1947 42.1316V33.6192C21.1904 33.6192 21.1855 33.6194 21.1813 33.6194C19.0756 33.6194 17.393 33.0664 15.6678 32.1046C15.2424 31.8675 14.4707 32.5042 14.0784 32.2196C13.5374 31.827 12.2352 32.5579 11.7659 32.0847Z" fill="url(#paint6_radial_0_73)"/>
</g>
<g id="Vector_9" opacity="0.5" filter="url(#filter8_f_0_73)">
<path d="M18.7107 33.351V41.9841C19.4974 42.0762 20.3162 42.1322 21.1751 42.1322C22.0362 42.1322 22.8692 42.0879 23.6787 42.0066V33.4092C22.7716 33.5643 21.9172 33.6194 21.1813 33.6194C20.3337 33.6194 19.5094 33.5208 18.7107 33.351Z" fill="url(#paint7_linear_0_73)"/>
</g>
</g>
<defs>
<filter id="filter0_f_0_73" x="0.00407884" y="21.504" width="16.4731" height="15.0421" filterUnits="userSpaceOnUse" color-interpolation-filters="sRGB">
<feFlood flood-opacity="0" result="BackgroundImageFix"/>
<feBlend mode="normal" in="SourceGraphic" in2="BackgroundImageFix" result="shape"/>
<feGaussianBlur stdDeviation="0.23504" result="effect1_foregroundBlur_0_73"/>
</filter>
<filter id="filter1_f_0_73" x="20.1573" y="1.22448" width="15.3327" height="12.1722" filterUnits="userSpaceOnUse" color-interpolation-filters="sRGB">
<feFlood flood-opacity="0" result="BackgroundImageFix"/>
<feBlend mode="normal" in="SourceGraphic" in2="BackgroundImageFix" result="shape"/>
<feGaussianBlur stdDeviation="0.23504" result="effect1_foregroundBlur_0_73"/>
</filter>
<filter id="filter2_f_0_73" x="5.07875" y="1.19885" width="16.7352" height="13.4419" filterUnits="userSpaceOnUse" color-interpolation-filters="sRGB">
<feFlood flood-opacity="0" result="BackgroundImageFix"/>
<feBlend mode="normal" in="SourceGraphic" in2="BackgroundImageFix" result="shape"/>
<feGaussianBlur stdDeviation="0.23504" result="effect1_foregroundBlur_0_73"/>
</filter>
<filter id="filter3_f_0_73" x="18.8631" y="21.8278" width="22.638" height="20.7439" filterUnits="userSpaceOnUse" color-interpolation-filters="sRGB">
<feFlood flood-opacity="0" result="BackgroundImageFix"/>
<feBlend mode="normal" in="SourceGraphic" in2="BackgroundImageFix" result="shape"/>
<feGaussianBlur stdDeviation="0.23504" result="effect1_foregroundBlur_0_73"/>
</filter>
<filter id="filter4_f_0_73" x="20.4262" y="17.3674" width="21.1106" height="9.21382" filterUnits="userSpaceOnUse" color-interpolation-filters="sRGB">
<feFlood flood-opacity="0" result="BackgroundImageFix"/>
<feBlend mode="normal" in="SourceGraphic" in2="BackgroundImageFix" result="shape"/>
<feGaussianBlur stdDeviation="0.23504" result="effect1_foregroundBlur_0_73"/>
</filter>
<filter id="filter5_f_0_73" x="-2.75309e-09" y="7.74317" width="13.8322" height="15.5059" filterUnits="userSpaceOnUse" color-interpolation-filters="sRGB">
<feFlood flood-opacity="0" result="BackgroundImageFix"/>
<feBlend mode="normal" in="SourceGraphic" in2="BackgroundImageFix" result="shape"/>
<feGaussianBlur stdDeviation="0.23504" result="effect1_foregroundBlur_0_73"/>
</filter>
<filter id="filter6_f_0_73" x="1.29939" y="0" width="18.6545" height="16.6984" filterUnits="userSpaceOnUse" color-interpolation-filters="sRGB">
<feFlood flood-opacity="0" result="BackgroundImageFix"/>
<feBlend mode="normal" in="SourceGraphic" in2="BackgroundImageFix" result="shape"/>
<feGaussianBlur stdDeviation="1.65243" result="effect1_foregroundBlur_0_73"/>
</filter>
<filter id="filter7_f_0_73" x="5.99996" y="31.5805" width="15.6648" height="11.0218" filterUnits="userSpaceOnUse" color-interpolation-filters="sRGB">
<feFlood flood-opacity="0" result="BackgroundImageFix"/>
<feBlend mode="normal" in="SourceGraphic" in2="BackgroundImageFix" result="shape"/>
<feGaussianBlur stdDeviation="0.23504" result="effect1_foregroundBlur_0_73"/>
</filter>
<filter id="filter8_f_0_73" x="18.2406" y="32.8809" width="5.90818" height="9.72128" filterUnits="userSpaceOnUse" color-interpolation-filters="sRGB">
<feFlood flood-opacity="0" result="BackgroundImageFix"/>
<feBlend mode="normal" in="SourceGraphic" in2="BackgroundImageFix" result="shape"/>
<feGaussianBlur stdDeviation="0.23504" result="effect1_foregroundBlur_0_73"/>
</filter>
<radialGradient id="paint0_radial_0_73" cx="0" cy="0" r="1" gradientTransform="matrix(-0.831203 -19.9199 29.8852 -1.19537 15.8203 35.776)" gradientUnits="userSpaceOnUse">
<stop offset="0.141612" stop-color="#1ABD4D"/>
<stop offset="0.247515" stop-color="#6EC30D"/>
<stop offset="0.311547" stop-color="#8AC502"/>
<stop offset="0.366013" stop-color="#A2C600"/>
<stop offset="0.445673" stop-color="#C8C903"/>
<stop offset="0.540305" stop-color="#EBCB03"/>
<stop offset="0.615636" stop-color="#F7CD07"/>
<stop offset="0.699345" stop-color="#FDCD04"/>
<stop offset="0.771242" stop-color="#FDCE05"/>
<stop offset="0.860566" stop-color="#FFCE0A"/>
</radialGradient>
<radialGradient id="paint1_radial_0_73" cx="0" cy="0" r="1" gradientTransform="matrix(14.1161 -3.39261e-05 -1.98408e-05 17.8488 34.4601 12.5026)" gradientUnits="userSpaceOnUse">
<stop offset="0.408458" stop-color="#FB4E5A"/>
<stop offset="1" stop-color="#FF4540"/>
</radialGradient>
<radialGradient id="paint2_radial_0_73" cx="0" cy="0" r="1" gradientTransform="matrix(-19.7777 10.7249 14.8646 26.2766 26.7512 -0.914744)" gradientUnits="userSpaceOnUse">
<stop offset="0.231273" stop-color="#FF4541"/>
<stop offset="0.311547" stop-color="#FF4540"/>
<stop offset="0.457516" stop-color="#FF4640"/>
<stop offset="0.540305" stop-color="#FF473F"/>
<stop offset="0.699346" stop-color="#FF5138"/>
<stop offset="0.771242" stop-color="#FF5B33"/>
<stop offset="0.860566" stop-color="#FF6C29"/>
<stop offset="1" stop-color="#FF8C18"/>
</radialGradient>
<radialGradient id="paint3_radial_0_73" cx="0" cy="0" r="1" gradientTransform="matrix(-35.8674 -45.8412 -17.2827 12.9625 21.4887 39.5127)" gradientUnits="userSpaceOnUse">
<stop offset="0.131546" stop-color="#0CBA65"/>
<stop offset="0.209784" stop-color="#0BB86D"/>
<stop offset="0.297297" stop-color="#09B479"/>
<stop offset="0.396257" stop-color="#08AD93"/>
<stop offset="0.477124" stop-color="#0AA6A9"/>
<stop offset="0.568425" stop-color="#0D9CC6"/>
<stop offset="0.667385" stop-color="#1893DD"/>
<stop offset="0.768727" stop-color="#258BF1"/>
<stop offset="0.858506" stop-color="#3086FF"/>
</radialGradient>
<radialGradient id="paint4_radial_0_73" cx="0" cy="0" r="1" gradientTransform="matrix(-2.53825 21.4203 30.2502 3.43614 19.4419 5.4468)" gradientUnits="userSpaceOnUse">
<stop offset="0.366013" stop-color="#FF4E3A"/>
<stop offset="0.457516" stop-color="#FF8A1B"/>
<stop offset="0.540305" stop-color="#FFA312"/>
<stop offset="0.615636" stop-color="#FFB60C"/>
<stop offset="0.771242" stop-color="#FFCD0A"/>
<stop offset="0.860566" stop-color="#FECF0A"/>
<stop offset="0.915033" stop-color="#FECF08"/>
<stop offset="1" stop-color="#FDCD01"/>
</radialGradient>
<radialGradient id="paint5_radial_0_73" cx="0" cy="0" r="1" gradientTransform="matrix(-7.33687 7.94462 -22.887 -20.261 15.8725 5.22461)" gradientUnits="userSpaceOnUse">
<stop offset="0.315904" stop-color="#FF4C3C"/>
<stop offset="0.603818" stop-color="#FF692C"/>
<stop offset="0.726837" stop-color="#FF7825"/>
<stop offset="0.884534" stop-color="#FF8D1B"/>
<stop offset="1" stop-color="#FF9F13"/>
</radialGradient>
<radialGradient id="paint6_radial_0_73" cx="0" cy="0" r="1" gradientTransform="matrix(-19.7777 -10.7249 14.8646 -26.2766 26.7512 44.5943)" gradientUnits="userSpaceOnUse">
<stop offset="0.231273" stop-color="#0FBC5F"/>
<stop offset="0.311547" stop-color="#0FBC5F"/>
<stop offset="0.366013" stop-color="#0FBC5E"/>
<stop offset="0.457516" stop-color="#0FBC5D"/>
<stop offset="0.540305" stop-color="#12BC58"/>
<stop offset="0.699346" stop-color="#28BF3C"/>
<stop offset="0.771242" stop-color="#38C02B"/>
<stop offset="0.860566" stop-color="#52C218"/>
<stop offset="0.915033" stop-color="#67C30F"/>
<stop offset="1" stop-color="#86C504"/>
</radialGradient>
<linearGradient id="paint7_linear_0_73" x1="18.7107" y1="37.7416" x2="23.6787" y2="37.7416" gradientUnits="userSpaceOnUse">
<stop stop-color="#0FBC5C"/>
<stop offset="1" stop-color="#0CBA65"/>
</linearGradient>
</defs>
</svg>
