<svg width="40" height="40" viewBox="0 0 40 40" fill="none" xmlns="http://www.w3.org/2000/svg">
  <circle cx="20" cy="20" r="20" fill="#0068FF"/>
  <path d="M20 8C13.373 8 8 12.475 8 18c0 3.092 1.633 5.837 4.153 7.625-.118.505-.426 1.85-.491 2.133-.082.351.126.346.264.25.107-.075 1.667-1.133 2.348-1.59C16.057 27.45 17.625 27.8 19.5 27.8c6.627 0 12-4.075 12-9.8S26.127 8 20 8Z" fill="white"/>
  <circle cx="15.5" cy="16.5" r="1.5" fill="#0068FF"/>
  <circle cx="24.5" cy="16.5" r="1.5" fill="#0068FF"/>
  <path d="M23.5 21.5c-.3-.27-.72-.5-1.12-.5-1.2 0-2.2.84-2.2 1.88 0 1.04.97 1.88 2.2 1.88.38 0 .74-.09 1.05-.25l.12.38c.02.07-.01.15-.08.17-.05.02-.09.01-.13-.01l-.74-.42c-.24.08-.51.13-.8.13-1.2 0-2.2-.84-2.2-1.88s1-1.88 2.2-1.88c.28 0 .55.05.79.13l.2-.33c.21-.34.6-.63 1.08-.83a.68.68 0 0 1 .54-.01c.28.1.5.29.65.5l.07.1a.68.68 0 0 1-.17.85l-.21.13Z" fill="#0068FF"/>
</svg>
